<svg xmlns="http://www.w3.org/2000/svg" viewBox="0 0 759.81 108.13"><defs><style>.cls-1{fill:#494949;}</style></defs><g id="レイヤー_2" data-name="レイヤー 2"><g id="Layer_1" data-name="Layer 1"><path class="cls-1" d="M200.18,26.56h-33A35.64,35.64,0,0,0,131.59,62.2v33a35.63,35.63,0,0,0,35.63,35.64h33a35.64,35.64,0,0,0,35.64-35.64V62.2A35.64,35.64,0,0,0,200.18,26.56ZM183.7,103.05a24.38,24.38,0,1,1,24.38-24.37A24.37,24.37,0,0,1,183.7,103.05Z" transform="translate(0 -22.67)"/><path class="cls-1" d="M76.47,25.26a24.37,24.37,0,0,1-48.71,0A35.65,35.65,0,0,0,0,60V93a35.54,35.54,0,0,0,13.19,27.67,16.59,16.59,0,0,1,31.14,8H59.9a16.6,16.6,0,0,1,31.15-8A35.57,35.57,0,0,0,104.24,93V60A35.66,35.66,0,0,0,76.47,25.26Z" transform="translate(0 -22.67)"/><path class="cls-1" d="M354.22,30.63a16.59,16.59,0,0,1-31.15-8H307.5a16.59,16.59,0,0,1-31.14,8,35.54,35.54,0,0,0-13.19,27.67v33A35.65,35.65,0,0,0,290.93,126a24.37,24.37,0,0,1,48.71,0,35.66,35.66,0,0,0,27.77-34.76V58.31A35.61,35.61,0,0,0,354.22,30.63Z" transform="translate(0 -22.67)"/><path class="cls-1" d="M743.22,79.65a16.59,16.59,0,0,1,16.59-16.6V60.37a35.64,35.64,0,0,0-35.64-35.64h-33a35.64,35.64,0,0,0-35.64,35.64V93.32A35.64,35.64,0,0,0,691.21,129h33a35.63,35.63,0,0,0,35.51-32.73A16.58,16.58,0,0,1,743.22,79.65Zm-35.53,38.44a16.59,16.59,0,1,1,16.59-16.59A16.59,16.59,0,0,1,707.69,118.09Zm0-41.25a16.59,16.59,0,1,1,16.59-16.59A16.59,16.59,0,0,1,707.69,76.84Z" transform="translate(0 -22.67)"/><path class="cls-1" d="M480.05,98.7a16.59,16.59,0,0,1,16.59-16.59V74a16.59,16.59,0,0,1-5.27-32.32,35.61,35.61,0,0,0-30.37-17H428A35.64,35.64,0,0,0,392.4,60.37V93.32A35.64,35.64,0,0,0,428,129h33a35.57,35.57,0,0,0,29.06-15A16.57,16.57,0,0,1,480.05,98.7Z" transform="translate(0 -22.67)"/><path class="cls-1" d="M611.63,98.7a16.59,16.59,0,0,1,16.59-16.59V74A16.59,16.59,0,0,1,623,41.72a35.62,35.62,0,0,0-30.38-17h-33A35.63,35.63,0,0,0,524,60.37V93.32A35.64,35.64,0,0,0,559.63,129h33a35.6,35.6,0,0,0,29.07-15A16.58,16.58,0,0,1,611.63,98.7Z" transform="translate(0 -22.67)"/></g></g></svg>